<svg xmlns="http://www.w3.org/2000/svg" aria-hidden="true" style="position:absolute;width:0;height:0;overflow:hidden">
  <defs>
    <symbol id="icon-arrow-down" viewBox="0 0 32 32">
      <path d="M11.166 23.963 22.36 17.5c1.43-.825 1.43-2.175 0-3L11.165 8.037c-1.43-.826-2.598-.15-2.598 1.5v12.926c0 1.65 1.169 2.326 2.599 1.5z"/>
    </symbol>
    <symbol id="icon-close" viewBox="0 0 32 32">
      <path d="m8.533 25.333-1.867-1.867 7.467-7.467-7.467-7.467 1.867-1.867L16 14.132l7.467-7.467 1.867 1.867-7.467 7.467 7.467 7.467-1.867 1.867L16 17.866l-7.467 7.467z"/>
    </symbol>
    <symbol id="icon-ellipse" viewBox="0 0 32 32">
      <path stroke-width=".64" d="M31.68 16c0 8.66-7.02 15.68-15.68 15.68S.32 24.66.32 16 7.34.32 16 .32 31.68 7.34 31.68 16z"/>
    </symbol>
    <symbol id="icon-menu" viewBox="0 0 32 32">
      <path d="M4 24v-2h24v2H4zm0-7v-2h24v2H4zm0-7V8h24v2H4z"/>
    </symbol>
  </defs>
</svg>
