<svg xmlns="http://www.w3.org/2000/svg" aria-hidden="true" style="position:absolute;width:0;height:0;overflow:hidden">
  <defs>
    <symbol id="icon-arrow-down" viewBox="0 0 32 32">
      <path d="M11.166 23.963 22.36 17.5c1.43-.825 1.43-2.175 0-3L11.165 8.037c-1.43-.826-2.598-.15-2.598 1.5v12.926c0 1.65 1.169 2.326 2.599 1.5z"/>
    </symbol>
    <symbol id="icon-arrow-left" viewBox="0 0 32 32">
  <g transform="rotate(180 16 16)">
    <path d="M11.166 23.963 22.36 17.5c1.43-.825 1.43-2.175 0-3L11.165 8.037c-1.43-.826-2.598-.15-2.598 1.5v12.926c0 1.65 1.169 2.326 2.599 1.5z"/>
  </g>
</symbol>
    <symbol id="icon-close" viewBox="0 0 32 32">
      <path d="m8.533 25.333-1.867-1.867 7.467-7.467-7.467-7.467 1.867-1.867L16 14.132l7.467-7.467 1.867 1.867-7.467 7.467 7.467 7.467-1.867 1.867L16 17.866l-7.467 7.467z"/>
    </symbol>
    <symbol id="icon-ellipse" viewBox="0 0 32 32">
      <path stroke-width=".64" d="M31.68 16c0 8.66-7.02 15.68-15.68 15.68S.32 24.66.32 16 7.34.32 16 .32 31.68 7.34 31.68 16z"/>
    </symbol>
    <symbol id="icon-menu" viewBox="0 0 32 32">
      <path d="M4 24v-2h24v2H4zm0-7v-2h24v2H4zm0-7V8h24v2H4z"/>
    </symbol>
    <symbol id="icon-google-play" viewBox="0 0 244 70">
  <path d="M9.5 69.2495H234.5C239.056 69.2495 242.75 65.628 242.75 61.2495V8.74994C242.75 4.37148 239.056 0.750008 234.5 0.750008H9.5C4.94415 0.750008 1.25 4.37148 1.25 8.74994V61.2495C1.25 65.628 4.94415 69.2495 9.5 69.2495Z" fill="#2B073C" stroke="#F5EDED" stroke-width="1.5" />
  <mask id="path-2-inside-1_22_142" fill="white">
    <path d="M234.5 0.000556946H9.5C4.55 0.000556946 0.5 3.93803 0.5 8.75049V61.2501C0.5 66.0625 4.55 70 9.5 70H234.5C239.45 70 243.5 66.0625 243.5 61.2501V8.75049C243.5 3.93803 239.45 0.000556946 234.5 0.000556946ZM234.5 1.40054C238.669 1.40054 242.06 4.69752 242.06 8.75049V61.2501C242.06 65.303 238.669 68.6 234.5 68.6H9.5C5.3312 68.6 1.94001 65.303 1.94001 61.2501V8.75049C1.94001 4.69752 5.3312 1.40054 9.5 1.40054H234.5Z" />
  </mask>
  <path d="M234.5 0.000556946H9.5C4.55 0.000556946 0.5 3.93803 0.5 8.75049V61.2501C0.5 66.0625 4.55 70 9.5 70H234.5C239.45 70 243.5 66.0625 243.5 61.2501V8.75049C243.5 3.93803 239.45 0.000556946 234.5 0.000556946ZM234.5 1.40054C238.669 1.40054 242.06 4.69752 242.06 8.75049V61.2501C242.06 65.303 238.669 68.6 234.5 68.6H9.5C5.3312 68.6 1.94001 65.303 1.94001 61.2501V8.75049C1.94001 4.69752 5.3312 1.40054 9.5 1.40054H234.5Z" fill="#A6A6A6" />
  <path d="M234.5 1.50056H9.5V-1.49944H234.5V1.50056ZM9.5 1.50056C5.3383 1.50056 2 4.80602 2 8.75049H-1C-1 3.07004 3.7617 -1.49944 9.5 -1.49944V1.50056ZM2 8.75049V61.2501H-1V8.75049H2ZM2 61.2501C2 65.1945 5.3383 68.5 9.5 68.5V71.5C3.7617 71.5 -1 66.9305 -1 61.2501H2ZM9.5 68.5H234.5V71.5H9.5V68.5ZM234.5 68.5C238.662 68.5 242 65.1945 242 61.2501H245C245 66.9305 240.238 71.5 234.5 71.5V68.5ZM242 61.2501V8.75049H245V61.2501H242ZM242 8.75049C242 4.80602 238.662 1.50056 234.5 1.50056V-1.49944C240.238 -1.49944 245 3.07004 245 8.75049H242ZM234.5 -0.0994568C239.457 -0.0994568 243.56 3.82953 243.56 8.75049H240.56C240.56 5.56551 237.88 2.90054 234.5 2.90054V-0.0994568ZM243.56 8.75049V61.2501H240.56V8.75049H243.56ZM243.56 61.2501C243.56 66.171 239.457 70.1 234.5 70.1V67.1C237.88 67.1 240.56 64.4351 240.56 61.2501H243.56ZM234.5 70.1H9.5V67.1H234.5V70.1ZM9.5 70.1C4.5429 70.1 0.440005 66.171 0.440005 61.2501H3.44001C3.44001 64.4351 6.1195 67.1 9.5 67.1V70.1ZM0.440005 61.2501V8.75049H3.44001V61.2501H0.440005ZM0.440005 8.75049C0.440005 3.82953 4.5429 -0.0994568 9.5 -0.0994568V2.90054C6.1195 2.90054 3.44001 5.56551 3.44001 8.75049H0.440005ZM9.5 -0.0994568H234.5V2.90054H9.5V-0.0994568Z" fill="#F5EDED" mask="url(#path-2-inside-1_22_142)" />
  <mask id="path-4-inside-2_22_142" fill="white">
    <path d="M85.8511 18.4018C85.8511 19.8314 85.3995 20.9693 84.4946 21.8188C83.4658 22.8287 82.1274 23.3337 80.4813 23.3337C78.9026 23.3337 77.5625 22.8219 76.4608 21.7966C75.3556 20.7731 74.8057 19.5022 74.8057 17.9873C74.8057 16.4707 75.3556 15.2015 76.4608 14.1763C77.5625 13.1527 78.9026 12.6392 80.4813 12.6392C81.2625 12.6392 82.0127 12.7825 82.7228 13.0691C83.4348 13.3557 84.0047 13.7362 84.4327 14.2121L83.4712 15.1128C82.7483 14.3042 81.7523 13.8982 80.4813 13.8982C79.3305 13.8982 78.3363 14.2769 77.4969 15.0344C76.6575 15.7935 76.2387 16.7761 76.2387 17.9873C76.2387 19.1968 76.6575 20.1811 77.4969 20.9386C78.3363 21.6977 79.3305 22.0747 80.4813 22.0747C81.7013 22.0747 82.7174 21.6943 83.5331 20.9317C84.0612 20.4353 84.3653 19.7461 84.4472 18.859H80.4813V17.6291H85.7746C85.8256 17.8969 85.8511 18.1545 85.8511 18.4018Z" />
  </mask>
  <path d="M85.8511 18.4018C85.8511 19.8314 85.3995 20.9693 84.4946 21.8188C83.4658 22.8287 82.1274 23.3337 80.4813 23.3337C78.9026 23.3337 77.5625 22.8219 76.4608 21.7966C75.3556 20.7731 74.8057 19.5022 74.8057 17.9873C74.8057 16.4707 75.3556 15.2015 76.4608 14.1763C77.5625 13.1527 78.9026 12.6392 80.4813 12.6392C81.2625 12.6392 82.0127 12.7825 82.7228 13.0691C83.4348 13.3557 84.0047 13.7362 84.4327 14.2121L83.4712 15.1128C82.7483 14.3042 81.7523 13.8982 80.4813 13.8982C79.3305 13.8982 78.3363 14.2769 77.4969 15.0344C76.6575 15.7935 76.2387 16.7761 76.2387 17.9873C76.2387 19.1968 76.6575 20.1811 77.4969 20.9386C78.3363 21.6977 79.3305 22.0747 80.4813 22.0747C81.7013 22.0747 82.7174 21.6943 83.5331 20.9317C84.0612 20.4353 84.3653 19.7461 84.4472 18.859H80.4813V17.6291H85.7746C85.8256 17.8969 85.8511 18.1545 85.8511 18.4018Z" fill="#F5EDED" />
  <path d="M84.4946 21.8188L83.4438 20.7484L83.4557 20.7366L83.4679 20.7252L84.4946 21.8188ZM76.4608 21.7966L77.48 20.6961L77.4828 20.6986L76.4608 21.7966ZM76.4608 14.1763L77.4818 15.2752L77.4809 15.276L76.4608 14.1763ZM82.7228 13.0691L82.1627 14.4606L82.1615 14.4601L82.7228 13.0691ZM84.4327 14.2121L85.5481 13.2092L86.5306 14.302L85.4582 15.3068L84.4327 14.2121ZM83.4712 15.1128L84.4968 16.2075L83.3763 17.2572L82.353 16.1126L83.4712 15.1128ZM77.4969 15.0344L76.4908 13.9218L76.4921 13.9207L77.4969 15.0344ZM77.4969 20.9386L78.5018 19.8249L78.503 19.826L77.4969 20.9386ZM83.5331 20.9317L84.5606 22.0246L84.5575 22.0275L83.5331 20.9317ZM84.4472 18.859V17.359H86.0922L85.9409 18.997L84.4472 18.859ZM80.4813 18.859V20.359H78.9813V18.859H80.4813ZM80.4813 17.6291H78.9813V16.1291H80.4813V17.6291ZM85.7746 17.6291V16.1291H87.016L87.2482 17.3486L85.7746 17.6291ZM87.3511 18.4018C87.3511 20.1767 86.7751 21.7353 85.5212 22.9124L83.4679 20.7252C84.024 20.2032 84.3511 19.4862 84.3511 18.4018H87.3511ZM85.5453 22.8892C84.1956 24.2142 82.4598 24.8337 80.4813 24.8337V21.8337C81.7951 21.8337 82.7359 21.4432 83.4438 20.7484L85.5453 22.8892ZM80.4813 24.8337C78.5445 24.8337 76.8332 24.1923 75.4389 22.8947L77.4828 20.6986C78.2917 21.4515 79.2608 21.8337 80.4813 21.8337V24.8337ZM75.4417 22.8972C74.026 21.5863 73.3057 19.9148 73.3057 17.9873H76.3057C76.3057 19.0895 76.6851 19.9599 77.48 20.6961L75.4417 22.8972ZM73.3057 17.9873C73.3057 16.0576 74.0263 14.3886 75.4407 13.0766L77.4809 15.276C76.6848 16.0145 76.3057 16.8838 76.3057 17.9873H73.3057ZM75.4398 13.0774C76.833 11.783 78.5434 11.1392 80.4813 11.1392V14.1392C79.2619 14.1392 78.292 14.5224 77.4818 15.2752L75.4398 13.0774ZM80.4813 11.1392C81.4498 11.1392 82.391 11.3177 83.2842 11.6781L82.1615 14.4601C81.6344 14.2474 81.0752 14.1392 80.4813 14.1392V11.1392ZM83.283 11.6776C84.1644 12.0325 84.939 12.5317 85.5481 13.2092L83.3172 15.215C83.0705 14.9406 82.7052 14.679 82.1627 14.4606L83.283 11.6776ZM85.4582 15.3068L84.4968 16.2075L82.4457 14.0182L83.4071 13.1175L85.4582 15.3068ZM82.353 16.1126C81.963 15.6764 81.4038 15.3982 80.4813 15.3982V12.3982C82.1008 12.3982 83.5336 12.932 84.5895 14.1131L82.353 16.1126ZM80.4813 15.3982C79.6948 15.3982 79.0605 15.6439 78.5018 16.148L76.4921 13.9207C77.6122 12.9099 78.9663 12.3982 80.4813 12.3982V15.3982ZM78.503 16.1469C78.002 16.6 77.7387 17.1668 77.7387 17.9873H74.7387C74.7387 16.3854 75.313 14.9869 76.4908 13.9218L78.503 16.1469ZM77.7387 17.9873C77.7387 18.8068 78.0024 19.3743 78.5018 19.8249L76.4921 22.0522C75.3126 20.988 74.7387 19.5868 74.7387 17.9873H77.7387ZM78.503 19.826C79.0601 20.3298 79.6933 20.5747 80.4813 20.5747V23.5747C78.9678 23.5747 77.6126 23.0656 76.4908 22.0511L78.503 19.826ZM80.4813 20.5747C81.3595 20.5747 81.9978 20.3136 82.5088 19.8359L84.5575 22.0275C83.4369 23.0749 82.0432 23.5747 80.4813 23.5747V20.5747ZM82.5057 19.8388C82.7097 19.6471 82.8973 19.3304 82.9536 18.7211L85.9409 18.997C85.8333 20.1618 85.4127 21.2235 84.5606 22.0246L82.5057 19.8388ZM84.4472 20.359H80.4813V17.359H84.4472V20.359ZM78.9813 18.859V17.6291H81.9813V18.859H78.9813ZM80.4813 16.1291H85.7746V19.1291H80.4813V16.1291ZM87.2482 17.3486C87.315 17.6996 87.3511 18.0514 87.3511 18.4018H84.3511C84.3511 18.2576 84.3363 18.0942 84.3011 17.9096L87.2482 17.3486Z" fill="#F5EDED" mask="url(#path-4-inside-2_22_142)" />
  <path d="M85.8511 18.4018C85.8511 19.8314 85.3995 20.9693 84.4946 21.8188C83.4658 22.8287 82.1274 23.3337 80.4813 23.3337C78.9026 23.3337 77.5625 22.8219 76.4608 21.7966C75.3556 20.7731 74.8057 19.5022 74.8057 17.9873C74.8057 16.4707 75.3556 15.2015 76.4608 14.1763C77.5625 13.1527 78.9026 12.6392 80.4813 12.6392C81.2625 12.6392 82.0127 12.7825 82.7228 13.0691C83.4348 13.3557 84.0047 13.7362 84.4327 14.2121L83.4712 15.1128C82.7483 14.3042 81.7523 13.8982 80.4813 13.8982C79.3305 13.8982 78.3363 14.2769 77.4969 15.0344C76.6575 15.7935 76.2387 16.7761 76.2387 17.9873C76.2387 19.1968 76.6575 20.1811 77.4969 20.9386C78.3363 21.6977 79.3305 22.0747 80.4813 22.0747C81.7013 22.0747 82.7174 21.6943 83.5331 20.9317C84.0612 20.4353 84.3653 19.7461 84.4472 18.859H80.4813V17.6291H85.7746C85.8256 17.8969 85.8511 18.1545 85.8511 18.4018Z" stroke="#F5EDED" stroke-width="0.5" stroke-miterlimit="10" />
  <mask id="path-7-inside-3_22_142" fill="white">
    <path d="M93.8844 12.9802H89.1857V16.3704H93.4235V17.6555H89.1857V21.0456H93.8844V22.361H87.8596V11.6666H93.8844V12.9802Z" />
  </mask>
  <path d="M93.8844 12.9802H89.1857V16.3704H93.4235V17.6555H89.1857V21.0456H93.8844V22.361H87.8596V11.6666H93.8844V12.9802Z" fill="#F5EDED" />
  <path d="M93.8844 12.9802H95.3844V14.4802H93.8844V12.9802ZM89.1857 12.9802H87.6857V11.4802H89.1857V12.9802ZM89.1857 16.3704V17.8704H87.6857V16.3704H89.1857ZM93.4235 16.3704V14.8704H94.9235V16.3704H93.4235ZM93.4235 17.6555H94.9235V19.1555H93.4235V17.6555ZM89.1857 17.6555H87.6857V16.1555H89.1857V17.6555ZM89.1857 21.0456V22.5456H87.6857V21.0456H89.1857ZM93.8844 21.0456V19.5456H95.3844V21.0456H93.8844ZM93.8844 22.361H95.3844V23.861H93.8844V22.361ZM87.8596 22.361V23.861H86.3596V22.361H87.8596ZM87.8596 11.6666H86.3596V10.1666H87.8596V11.6666ZM93.8844 11.6666V10.1666H95.3844V11.6666H93.8844ZM93.8844 14.4802H89.1857V11.4802H93.8844V14.4802ZM90.6857 12.9802V16.3704H87.6857V12.9802H90.6857ZM89.1857 14.8704H93.4235V17.8704H89.1857V14.8704ZM94.9235 16.3704V17.6555H91.9235V16.3704H94.9235ZM93.4235 19.1555H89.1857V16.1555H93.4235V19.1555ZM90.6857 17.6555V21.0456H87.6857V17.6555H90.6857ZM89.1857 19.5456H93.8844V22.5456H89.1857V19.5456ZM95.3844 21.0456V22.361H92.3844V21.0456H95.3844ZM93.8844 23.861H87.8596V20.861H93.8844V23.861ZM86.3596 22.361V11.6666H89.3596V22.361H86.3596ZM87.8596 10.1666H93.8844V13.1666H87.8596V10.1666ZM95.3844 11.6666V12.9802H92.3844V11.6666H95.3844Z" fill="#F5EDED" mask="url(#path-7-inside-3_22_142)" />
  <path d="M93.8844 12.9802H89.1857V16.3704H93.4235V17.6555H89.1857V21.0456H93.8844V22.361H87.8596V11.6666H93.8844V12.9802Z" stroke="#F5EDED" stroke-width="0.5" stroke-miterlimit="10" />
  <mask id="path-10-inside-4_22_142" fill="white">
    <path d="M100.064 22.361H98.7498V12.9802H95.8926V11.6666H102.922V12.9802H100.064V22.361Z" />
  </mask>
  <path d="M100.064 22.361H98.7498V12.9802H95.8926V11.6666H102.922V12.9802H100.064V22.361Z" fill="#F5EDED" />
  <path d="M100.064 22.361H101.564V23.861H100.064V22.361ZM98.7498 22.361V23.861H97.2498V22.361H98.7498ZM98.7498 12.9802V11.4802H100.25V12.9802H98.7498ZM95.8926 12.9802V14.4802H94.3926V12.9802H95.8926ZM95.8926 11.6666H94.3926V10.1666H95.8926V11.6666ZM102.922 11.6666V10.1666H104.422V11.6666H102.922ZM102.922 12.9802H104.422V14.4802H102.922V12.9802ZM100.064 12.9802H98.5642V11.4802H100.064V12.9802ZM100.064 23.861H98.7498V20.861H100.064V23.861ZM97.2498 22.361V12.9802H100.25V22.361H97.2498ZM98.7498 14.4802H95.8926V11.4802H98.7498V14.4802ZM94.3926 12.9802V11.6666H97.3926V12.9802H94.3926ZM95.8926 10.1666H102.922V13.1666H95.8926V10.1666ZM104.422 11.6666V12.9802H101.422V11.6666H104.422ZM102.922 14.4802H100.064V11.4802H102.922V14.4802ZM101.564 12.9802V22.361H98.5642V12.9802H101.564Z" fill="#F5EDED" mask="url(#path-10-inside-4_22_142)" />
  <path d="M100.064 22.361H98.7498V12.9802H95.8926V11.6666H102.922V12.9802H100.064V22.361Z" stroke="#F5EDED" stroke-width="0.5" stroke-miterlimit="10" />
  <path d="M107.942 11.6666H108.946V22.361H107.942V11.6666Z" fill="#F5EDED" stroke="#F5EDED" stroke-width="0.5" stroke-miterlimit="10" />
  <mask id="path-14-inside-5_22_142" fill="white">
    <path d="M116.13 22.361H114.816V12.9802H111.959V11.6666H118.988V12.9802H116.13V22.361Z" />
  </mask>
  <path d="M116.13 22.361H114.816V12.9802H111.959V11.6666H118.988V12.9802H116.13V22.361Z" fill="#F5EDED" />
  <path d="M116.13 22.361H117.63V23.861H116.13V22.361ZM114.816 22.361V23.861H113.316V22.361H114.816ZM114.816 12.9802V11.4802H116.316V12.9802H114.816ZM111.959 12.9802V14.4802H110.459V12.9802H111.959ZM111.959 11.6666H110.459V10.1666H111.959V11.6666ZM118.988 11.6666V10.1666H120.488V11.6666H118.988ZM118.988 12.9802H120.488V14.4802H118.988V12.9802ZM116.13 12.9802H114.63V11.4802H116.13V12.9802ZM116.13 23.861H114.816V20.861H116.13V23.861ZM113.316 22.361V12.9802H116.316V22.361H113.316ZM114.816 14.4802H111.959V11.4802H114.816V14.4802ZM110.459 12.9802V11.6666H113.459V12.9802H110.459ZM111.959 10.1666H118.988V13.1666H111.959V10.1666ZM120.488 11.6666V12.9802H117.488V11.6666H120.488ZM118.988 14.4802H116.13V11.4802H118.988V14.4802ZM117.63 12.9802V22.361H114.63V12.9802H117.63Z" fill="#F5EDED" mask="url(#path-14-inside-5_22_142)" />
  <path d="M116.13 22.361H114.816V12.9802H111.959V11.6666H118.988V12.9802H116.13V22.361Z" stroke="#F5EDED" stroke-width="0.5" stroke-miterlimit="10" />
  <mask id="path-17-inside-6_22_142" fill="white">
    <path d="M125.607 20.9249C126.402 21.6926 127.374 22.0747 128.526 22.0747C129.678 22.0747 130.65 21.6926 131.445 20.9249C132.241 20.1572 132.64 19.178 132.64 17.9873C132.64 16.7966 132.241 15.8157 131.445 15.0497C130.65 14.2821 129.678 13.8982 128.526 13.8982C127.374 13.8982 126.402 14.2821 125.607 15.0497C124.813 15.8157 124.414 16.7966 124.414 17.9873C124.414 19.178 124.813 20.1572 125.607 20.9249ZM132.466 21.7813C131.41 22.8168 130.097 23.3337 128.526 23.3337C126.955 23.3337 125.642 22.8168 124.587 21.7813C123.531 20.7475 123.004 19.4834 123.004 17.9873C123.004 16.4912 123.531 15.2254 124.587 14.1916C125.642 13.1578 126.955 12.6392 128.526 12.6392C130.088 12.6392 131.397 13.1596 132.459 14.1985C133.519 15.2374 134.05 16.4997 134.05 17.9873C134.05 19.4834 133.521 20.7475 132.466 21.7813Z" />
  </mask>
  <path d="M125.607 20.9249C126.402 21.6926 127.374 22.0747 128.526 22.0747C129.678 22.0747 130.65 21.6926 131.445 20.9249C132.241 20.1572 132.64 19.178 132.64 17.9873C132.64 16.7966 132.241 15.8157 131.445 15.0497C130.65 14.2821 129.678 13.8982 128.526 13.8982C127.374 13.8982 126.402 14.2821 125.607 15.0497C124.813 15.8157 124.414 16.7966 124.414 17.9873C124.414 19.178 124.813 20.1572 125.607 20.9249ZM132.466 21.7813C131.41 22.8168 130.097 23.3337 128.526 23.3337C126.955 23.3337 125.642 22.8168 124.587 21.7813C123.531 20.7475 123.004 19.4834 123.004 17.9873C123.004 16.4912 123.531 15.2254 124.587 14.1916C125.642 13.1578 126.955 12.6392 128.526 12.6392C130.088 12.6392 131.397 13.1596 132.459 14.1985C133.519 15.2374 134.05 16.4997 134.05 17.9873C134.05 19.4834 133.521 20.7475 132.466 21.7813Z" fill="#F5EDED" />
  <path d="M125.607 20.9249L124.565 22.0041L124.564 22.0029L125.607 20.9249ZM131.445 15.0497L130.405 16.1301L130.404 16.1289L131.445 15.0497ZM125.607 15.0497L124.565 13.9705L124.565 13.9705L125.607 15.0497ZM132.466 21.7813L133.516 22.8526L133.516 22.8526L132.466 21.7813ZM124.587 21.7813L125.636 20.709L125.638 20.7108L124.587 21.7813ZM124.587 14.1916L125.637 15.263L125.636 15.2639L124.587 14.1916ZM132.459 14.1985L133.508 13.1262L133.509 13.127L132.459 14.1985ZM126.648 19.8457C127.15 20.3302 127.744 20.5747 128.526 20.5747V23.5747C127.005 23.5747 125.653 23.0549 124.565 22.0041L126.648 19.8457ZM128.526 20.5747C129.308 20.5747 129.902 20.3303 130.404 19.8457L132.487 22.0041C131.399 23.0549 130.047 23.5747 128.526 23.5747V20.5747ZM130.404 19.8457C130.883 19.383 131.14 18.8042 131.14 17.9873H134.14C134.14 19.5519 133.598 20.9315 132.487 22.0041L130.404 19.8457ZM131.14 17.9873C131.14 17.1694 130.882 16.59 130.405 16.1301L132.486 13.9694C133.599 15.0413 134.14 16.4238 134.14 17.9873H131.14ZM130.404 16.1289C129.901 15.6433 129.307 15.3982 128.526 15.3982V12.3982C130.049 12.3982 131.4 12.9208 132.487 13.9705L130.404 16.1289ZM128.526 15.3982C127.745 15.3982 127.151 15.6433 126.648 16.1289L124.565 13.9705C125.652 12.9208 127.003 12.3982 128.526 12.3982V15.3982ZM126.648 16.1289C126.172 16.5892 125.914 17.1692 125.914 17.9873H122.914C122.914 16.424 123.455 15.0422 124.565 13.9705L126.648 16.1289ZM125.914 17.9873C125.914 18.8044 126.171 19.3838 126.65 19.8469L124.564 22.0029C123.455 20.9306 122.914 19.5517 122.914 17.9873H125.914ZM133.516 22.8526C132.16 24.1813 130.462 24.8337 128.526 24.8337V21.8337C129.731 21.8337 130.659 21.4522 131.416 20.7099L133.516 22.8526ZM128.526 24.8337C126.59 24.8337 124.891 24.1814 123.537 22.8518L125.638 20.7108C126.393 21.4521 127.32 21.8337 128.526 21.8337V24.8337ZM123.538 22.8535C122.189 21.533 121.504 19.8804 121.504 17.9873H124.504C124.504 19.0864 124.873 19.962 125.636 20.709L123.538 22.8535ZM121.504 17.9873C121.504 16.0947 122.188 14.4403 123.538 13.1194L125.636 15.2639C124.873 16.0106 124.504 16.8877 124.504 17.9873H121.504ZM123.538 13.1203C124.891 11.7939 126.589 11.1392 128.526 11.1392V14.1392C127.321 14.1392 126.394 14.5218 125.637 15.263L123.538 13.1203ZM128.526 11.1392C130.459 11.1392 132.151 11.7988 133.508 13.1262L131.41 15.2708C130.643 14.5203 129.717 14.1392 128.526 14.1392V11.1392ZM133.509 13.127C134.858 14.4486 135.55 16.0973 135.55 17.9873H132.55C132.55 16.9022 132.181 16.0262 131.409 15.2699L133.509 13.127ZM135.55 17.9873C135.55 19.8815 134.863 21.5333 133.516 22.8526L131.416 20.7099C132.18 19.9617 132.55 19.0853 132.55 17.9873H135.55Z" fill="#F5EDED" mask="url(#path-17-inside-6_22_142)" />
  <path d="M125.607 20.9249C126.402 21.6926 127.374 22.0747 128.526 22.0747C129.678 22.0747 130.65 21.6926 131.445 20.9249C132.241 20.1572 132.64 19.178 132.64 17.9873C132.64 16.7966 132.241 15.8157 131.445 15.0497C130.65 14.2821 129.678 13.8982 128.526 13.8982C127.374 13.8982 126.402 14.2821 125.607 15.0497C124.813 15.8157 124.414 16.7966 124.414 17.9873C124.414 19.178 124.813 20.1572 125.607 20.9249ZM132.466 21.7813C131.41 22.8168 130.097 23.3337 128.526 23.3337C126.955 23.3337 125.642 22.8168 124.587 21.7813C123.531 20.7475 123.004 19.4834 123.004 17.9873C123.004 16.4912 123.531 15.2254 124.587 14.1916C125.642 13.1578 126.955 12.6392 128.526 12.6392C130.088 12.6392 131.397 13.1596 132.459 14.1985C133.519 15.2374 134.05 16.4997 134.05 17.9873C134.05 19.4834 133.521 20.7475 132.466 21.7813Z" stroke="#F5EDED" stroke-width="0.5" stroke-miterlimit="10" />
  <path d="M136.808 12.4166V12.8879H137.338H137.395H137.552L137.265 12.4166H136.808ZM143.115 21.611H143.341V20.7351H142.809H142.75H142.583L143.115 21.611Z" fill="#F5EDED" stroke="#F5EDED" stroke-width="1.5" />
  <path d="M136.058 22.361V11.6666H137.687L142.75 19.9851H142.809L142.75 17.9246V11.6666H144.091V22.361H142.693L137.395 13.6379H137.338L137.395 15.7002V22.361H136.058Z" stroke="#F5EDED" stroke-width="0.5" stroke-miterlimit="10" />
  <mask id="path-22-inside-7_22_142" fill="white">
    <path d="M193.439 52.0918H196.799V29.9669H193.439V52.0918ZM223.698 37.9366L219.847 47.5292H219.732L215.735 37.9366H212.116L218.11 51.3432L214.694 58.8013H218.196L227.434 37.9366H223.698ZM204.647 49.5786C203.545 49.5786 202.011 49.0388 202.011 47.6991C202.011 45.9929 203.921 45.3381 205.572 45.3381C207.048 45.3381 207.745 45.6513 208.642 46.0779C208.38 48.1274 206.586 49.5786 204.647 49.5786ZM205.052 37.4534C202.619 37.4534 200.099 38.5065 199.058 40.8409L202.04 42.0639C202.677 40.8409 203.863 40.4409 205.109 40.4409C206.847 40.4409 208.613 41.4656 208.642 43.2886V43.5151C208.033 43.1736 206.731 42.6621 205.138 42.6621C201.924 42.6621 198.651 44.3983 198.651 47.6424C198.651 50.6034 201.287 52.5113 204.24 52.5113C206.499 52.5113 207.745 51.5149 208.526 50.3468H208.642V52.0547H211.884V43.5718C211.884 39.6445 208.903 37.4534 205.052 37.4534ZM184.29 40.6303H179.512V33.0465H184.29C186.801 33.0465 188.227 35.0906 188.227 36.8375C188.227 38.5525 186.801 40.6303 184.29 40.6303ZM184.203 29.9669H176.154V52.0918H179.512V43.7098H184.203C187.926 43.7098 191.587 41.0586 191.587 36.8375C191.587 32.6164 187.926 29.9669 184.203 29.9669ZM140.309 49.5822C137.988 49.5822 136.045 47.6725 136.045 45.0496C136.045 42.3984 137.988 40.4586 140.309 40.4586C142.6 40.4586 144.397 42.3984 144.397 45.0496C144.397 47.6725 142.6 49.5822 140.309 49.5822ZM144.167 39.1755H144.05C143.295 38.2923 141.846 37.4941 140.019 37.4941C136.189 37.4941 132.68 40.8002 132.68 45.0496C132.68 49.2689 136.189 52.5485 140.019 52.5485C141.846 52.5485 143.295 51.7503 144.05 50.837H144.167V51.9219C144.167 54.8015 142.6 56.3413 140.076 56.3413C138.017 56.3413 136.74 54.8864 136.218 53.6599L133.289 54.8581C134.13 56.8545 136.364 59.3058 140.076 59.3058C144.021 59.3058 147.357 57.0244 147.357 51.4653V37.949H144.167V39.1755ZM149.678 52.0918H153.043V29.9652H149.678V52.0918ZM158.001 44.793C157.914 41.8851 160.293 40.402 162.003 40.402C163.339 40.402 164.469 41.0568 164.846 41.9984L158.001 44.793ZM168.443 42.2833C167.806 40.602 165.861 37.4941 161.888 37.4941C157.943 37.4941 154.666 40.5436 154.666 45.0213C154.666 49.2406 157.914 52.5485 162.264 52.5485C165.775 52.5485 167.806 50.4388 168.646 49.2123L166.036 47.5008C165.166 48.7557 163.976 49.5822 162.264 49.5822C160.554 49.5822 159.335 48.8123 158.552 47.3026L168.79 43.1382L168.443 42.2833ZM86.8717 39.8038V42.9966H94.6439C94.4117 44.793 93.8032 46.1044 92.876 47.0159C91.7435 48.1291 89.9738 49.3556 86.8717 49.3556C82.0846 49.3556 78.3434 45.5629 78.3434 40.8586C78.3434 36.1526 82.0846 32.3615 86.8717 32.3615C89.4535 32.3615 91.3385 33.3597 92.7301 34.6429L95.022 32.3898C93.0776 30.5651 90.4977 29.1669 86.8717 29.1669C80.3166 29.1669 74.8057 34.4146 74.8057 40.8586C74.8057 47.3026 80.3166 52.5485 86.8717 52.5485C90.4095 52.5485 93.0776 51.4069 95.166 49.2689C97.3139 47.1593 97.98 44.1948 97.98 41.7984C97.98 41.0568 97.9224 40.3736 97.8054 39.8038H86.8717ZM106.818 49.5822C104.497 49.5822 102.495 47.7008 102.495 45.0213C102.495 42.3116 104.497 40.4586 106.818 40.4586C109.137 40.4586 111.139 42.3116 111.139 45.0213C111.139 47.7008 109.137 49.5822 106.818 49.5822ZM106.818 37.4941C102.582 37.4941 99.1305 40.6586 99.1305 45.0213C99.1305 49.3556 102.582 52.5485 106.818 52.5485C111.052 52.5485 114.504 49.3556 114.504 45.0213C114.504 40.6586 111.052 37.4941 106.818 37.4941ZM123.585 49.5822C121.264 49.5822 119.262 47.7008 119.262 45.0213C119.262 42.3116 121.264 40.4586 123.585 40.4586C125.906 40.4586 127.906 42.3116 127.906 45.0213C127.906 47.7008 125.906 49.5822 123.585 49.5822ZM123.585 37.4941C119.35 37.4941 115.899 40.6586 115.899 45.0213C115.899 49.3556 119.35 52.5485 123.585 52.5485C127.819 52.5485 131.271 49.3556 131.271 45.0213C131.271 40.6586 127.819 37.4941 123.585 37.4941Z" />
  </mask>
  <path d="M193.439 52.0918H196.799V29.9669H193.439V52.0918ZM223.698 37.9366L219.847 47.5292H219.732L215.735 37.9366H212.116L218.11 51.3432L214.694 58.8013H218.196L227.434 37.9366H223.698ZM204.647 49.5786C203.545 49.5786 202.011 49.0388 202.011 47.6991C202.011 45.9929 203.921 45.3381 205.572 45.3381C207.048 45.3381 207.745 45.6513 208.642 46.0779C208.38 48.1274 206.586 49.5786 204.647 49.5786ZM205.052 37.4534C202.619 37.4534 200.099 38.5065 199.058 40.8409L202.04 42.0639C202.677 40.8409 203.863 40.4409 205.109 40.4409C206.847 40.4409 208.613 41.4656 208.642 43.2886V43.5151C208.033 43.1736 206.731 42.6621 205.138 42.6621C201.924 42.6621 198.651 44.3983 198.651 47.6424C198.651 50.6034 201.287 52.5113 204.24 52.5113C206.499 52.5113 207.745 51.5149 208.526 50.3468H208.642V52.0547H211.884V43.5718C211.884 39.6445 208.903 37.4534 205.052 37.4534ZM184.29 40.6303H179.512V33.0465H184.29C186.801 33.0465 188.227 35.0906 188.227 36.8375C188.227 38.5525 186.801 40.6303 184.29 40.6303ZM184.203 29.9669H176.154V52.0918H179.512V43.7098H184.203C187.926 43.7098 191.587 41.0586 191.587 36.8375C191.587 32.6164 187.926 29.9669 184.203 29.9669ZM140.309 49.5822C137.988 49.5822 136.045 47.6725 136.045 45.0496C136.045 42.3984 137.988 40.4586 140.309 40.4586C142.6 40.4586 144.397 42.3984 144.397 45.0496C144.397 47.6725 142.6 49.5822 140.309 49.5822ZM144.167 39.1755H144.05C143.295 38.2923 141.846 37.4941 140.019 37.4941C136.189 37.4941 132.68 40.8002 132.68 45.0496C132.68 49.2689 136.189 52.5485 140.019 52.5485C141.846 52.5485 143.295 51.7503 144.05 50.837H144.167V51.9219C144.167 54.8015 142.6 56.3413 140.076 56.3413C138.017 56.3413 136.74 54.8864 136.218 53.6599L133.289 54.8581C134.13 56.8545 136.364 59.3058 140.076 59.3058C144.021 59.3058 147.357 57.0244 147.357 51.4653V37.949H144.167V39.1755ZM149.678 52.0918H153.043V29.9652H149.678V52.0918ZM158.001 44.793C157.914 41.8851 160.293 40.402 162.003 40.402C163.339 40.402 164.469 41.0568 164.846 41.9984L158.001 44.793ZM168.443 42.2833C167.806 40.602 165.861 37.4941 161.888 37.4941C157.943 37.4941 154.666 40.5436 154.666 45.0213C154.666 49.2406 157.914 52.5485 162.264 52.5485C165.775 52.5485 167.806 50.4388 168.646 49.2123L166.036 47.5008C165.166 48.7557 163.976 49.5822 162.264 49.5822C160.554 49.5822 159.335 48.8123 158.552 47.3026L168.79 43.1382L168.443 42.2833ZM86.8717 39.8038V42.9966H94.6439C94.4117 44.793 93.8032 46.1044 92.876 47.0159C91.7435 48.1291 89.9738 49.3556 86.8717 49.3556C82.0846 49.3556 78.3434 45.5629 78.3434 40.8586C78.3434 36.1526 82.0846 32.3615 86.8717 32.3615C89.4535 32.3615 91.3385 33.3597 92.7301 34.6429L95.022 32.3898C93.0776 30.5651 90.4977 29.1669 86.8717 29.1669C80.3166 29.1669 74.8057 34.4146 74.8057 40.8586C74.8057 47.3026 80.3166 52.5485 86.8717 52.5485C90.4095 52.5485 93.0776 51.4069 95.166 49.2689C97.3139 47.1593 97.98 44.1948 97.98 41.7984C97.98 41.0568 97.9224 40.3736 97.8054 39.8038H86.8717ZM106.818 49.5822C104.497 49.5822 102.495 47.7008 102.495 45.0213C102.495 42.3116 104.497 40.4586 106.818 40.4586C109.137 40.4586 111.139 42.3116 111.139 45.0213C111.139 47.7008 109.137 49.5822 106.818 49.5822ZM106.818 37.4941C102.582 37.4941 99.1305 40.6586 99.1305 45.0213C99.1305 49.3556 102.582 52.5485 106.818 52.5485C111.052 52.5485 114.504 49.3556 114.504 45.0213C114.504 40.6586 111.052 37.4941 106.818 37.4941ZM123.585 49.5822C121.264 49.5822 119.262 47.7008 119.262 45.0213C119.262 42.3116 121.264 40.4586 123.585 40.4586C125.906 40.4586 127.906 42.3116 127.906 45.0213C127.906 47.7008 125.906 49.5822 123.585 49.5822ZM123.585 37.4941C119.35 37.4941 115.899 40.6586 115.899 45.0213C115.899 49.3556 119.35 52.5485 123.585 52.5485C127.819 52.5485 131.271 49.3556 131.271 45.0213C131.271 40.6586 127.819 37.4941 123.585 37.4941Z" fill="#F5EDED" stroke="#F5EDED" stroke-width="3" mask="url(#path-22-inside-7_22_142)" />
  <path d="M46.4868 44.4469L37.6399 35.1109L19.4279 53.8482C20.0455 55.4515 21.6506 56.611 23.5526 56.611C24.3732 56.611 25.1392 56.396 25.7943 56.022L25.7946 56.0219L25.8555 55.9871L25.8555 55.9871L25.8609 55.9841L46.4868 44.4469Z" fill="#EA4335" stroke="#F5EDED" stroke-width="1.5" />
  <path d="M56.7394 31.2327L56.7031 31.2129L56.6778 31.1953L48.0384 26.198L38.7466 34.4492L48.1056 43.7856L56.6945 38.8405L56.7033 38.8354L56.7124 38.8305C58.074 38.0954 58.9937 36.6664 58.9937 35.0236C58.9937 33.3887 58.0872 31.9685 56.7394 31.2327Z" fill="#F0B502" stroke="#F5EDED" stroke-width="1.5" />
  <path d="M37.5696 34.0201L19.3245 17.1091V51.8645L37.5696 34.0201Z" fill="#4285F4" stroke="#F5EDED" stroke-width="1.5" />
  <path d="M37.8119 33.9555L46.4504 25.5821L25.8582 14.0074L25.8581 14.0074L25.8486 14.0019C25.1803 13.6132 24.399 13.3889 23.5605 13.3889C21.6637 13.3889 20.0584 14.5437 19.4339 16.1415L37.8119 33.9555Z" fill="#34A853" stroke="#F5EDED" stroke-width="1.5" />
    </symbol>
  </defs>
</svg>
